<svg xmlns="http://www.w3.org/2000/svg" xml:space="preserve" viewBox="0 0 475.1 42.5">
								<g fill="#1f1f1f">
									<path d="M32.1 40.8c-2.5.4-4.3.4-6.8 0L8.7 20v20.8c-2.5.4-6.2.4-8.7 0V5.3c2.5-.4 4.3-.4 6.8 0l16.6 20.8V5.3c2.5-.4 6.2-.4 8.7 0v35.5zM69.3 40.8c-2.5.4-6.5.4-9 0l-2.5-6.7h-13l-2.5 6.7c-2.5.4-6.5.4-9 0L47.6 5.3c2.5-.4 4.7-.4 7.2 0l14.5 35.5zM55 26.7l-3.8-10.2-3.8 10.2H55z"/>
									<path d="M77 40.8c-2.5.4-6.2.4-8.7 0V5.3c2.5-.4 6.2-.4 8.7 0v35.5zM96.7 5.3c7.9 0 13.4 4.8 13.4 11.8 0 4.8-2.6 8.6-6.8 10.4l8.6 13.3c-2.5.4-7 .4-9.5 0l-7.8-12h-3.4v12c-2.5.4-6.2.4-8.7 0V5.3h14.2zm-5.4 16.2h5.5c2.4 0 4.5-1.4 4.5-4.5s-2.1-4.5-4.5-4.5h-5.5v9zM129.6 5.3C137.5 5.3 143 10 143 17c0 4.8-2.6 8.6-6.8 10.4l8.6 13.3c-2.5.4-7 .4-9.5 0l-7.8-12h-3.4v12c-2.5.4-6.2.4-8.7 0V5.3h14.2zm-5.5 16.2h5.5c2.4 0 4.5-1.4 4.5-4.5s-2.1-4.5-4.5-4.5h-5.5v9zM169 5.3c8.6 0 13 5.2 13 11.5 0 6.2-4.4 11.5-13 11.5h-8.6v12.6c-1.1.3-3 .3-4.1 0V5.3H169zm0 19.5c6 0 8.9-3.7 8.9-8s-2.8-8-8.9-8h-8.6v16.1h8.6zM191.6 10.7c0 1.4-1.1 2.5-2.6 2.5s-2.6-1-2.6-2.5 1.1-2.5 2.6-2.5c1.4 0 2.6 1 2.6 2.5zm-.7 30.1c-1.1.3-2.7.3-3.8 0V18.9c1.1-.3 2.7-.3 3.8 0v21.9zM202.1 40.8c-1.1.3-2.7.3-3.8 0V5.3c1.1-.3 2.7-.3 3.8 0v35.5zM230.1 29.9c0 6.6-4.9 11.8-11.8 11.8s-11.9-5.2-11.9-11.8 4.9-11.8 11.9-11.8c6.9 0 11.8 5.2 11.8 11.8zm-19.9 0c0 4.9 3.4 8.5 8.1 8.5 4.6 0 8-3.6 8-8.5s-3.4-8.5-8-8.5-8.1 3.5-8.1 8.5zM247.9 39.5c-1 .9-3.2 2.1-5.7 2.1-3.3 0-5.7-2-5.7-6.1V22.2H233c-.3-1-.3-2.3 0-3.2h3.4v-7.1c1.1-.3 2.7-.3 3.8 0V19h7.2c.3.9.3 2.2 0 3.2h-7.2v13c0 2.3 1 3.3 2.7 3.3 1.9 0 3.6-1.3 4.9-2.2.4.3.4 2.6.1 3.2z"/>
								</g>
									<g fill="#1f1f1f">
										<path d="M282.8 19 279 7.7c-.3-.8-.5-1.6-.7-2.4.1.9.2 1.8.2 2.7v11h-1.4V1.9h1.4l3.9 11.6c.2.7.4 1.4.6 2-.1-.7-.2-1.4-.2-2.1V1.9h1.4V19h-1.4zM291.2 19v-.9c-.5.7-1.1 1.1-2 1.1-2.6 0-2.7-3.7-2.7-5.7 0-2.3.1-6.1 2.8-6.1.8 0 1.3.3 1.8.9v-.8h1.5V19h-1.4zm-1.5-10.5c-1.7 0-1.7 2.9-1.7 4.1 0 .9 0 1.8.1 2.8.1 1 .3 2.6 1.6 2.6.4 0 .7-.1.9-.4.7-.7.7-3.4.7-4.4.1-2.3-.1-4.7-1.6-4.7zM297.1 8.9V19h-1.4V8.9h-1.2V7.5h1.2V4.3h1.4v3.3h1.9v1.3h-1.9zM301.1 5c-.6 0-1.1-.5-1.1-1.1 0-.6.5-1.1 1.1-1.1.6 0 1.1.5 1.1 1.1-.1.6-.5 1.1-1.1 1.1zm-.8 14V7.5h1.5V19h-1.5zM307.3 19.2c-3 0-3.4-3.7-3.4-5.9s.4-5.9 3.4-5.9 3.2 3.8 3.2 6c0 2.1-.3 5.8-3.2 5.8zm-.1-10.5c-1.8 0-1.8 3.5-1.8 4.7 0 1.2.1 4.4 1.8 4.4s1.7-3.4 1.7-4.6 0-4.5-1.7-4.5zM317.1 19v-8.3c0-.9 0-2.1-1.3-2.1-.5 0-1.1.3-1.4.7-.4.6-.4 1.3-.4 2V19h-1.4V7.5h1.4v.9c.6-.6 1.3-1.1 2.2-1.1 1.9 0 2.2 1.6 2.2 3.2V19h-1.3zM325.5 19v-.9c-.5.7-1.1 1.1-2 1.1-2.6 0-2.7-3.7-2.7-5.7 0-2.3.1-6.1 2.8-6.1.8 0 1.3.3 1.8.9v-.8h1.5V19h-1.4zM324 8.5c-1.7 0-1.7 2.9-1.7 4.1 0 .9 0 1.8.1 2.8.1 1 .3 2.6 1.6 2.6.4 0 .7-.1.9-.4.7-.7.7-3.4.7-4.4 0-2.3-.1-4.7-1.6-4.7zM329.5 19V.3h1.5V19h-1.5zM344.8 19l-.6-3.5h-3.6L340 19h-1.7l3.4-17.1h1.5l3.4 17.1h-1.8zm-2-10.9c-.3-1.3-.4-2.7-.5-4-.2 3.4-.9 6.7-1.5 10.1h3.1l-1.1-6.1zM351.2 9c-1.9 0-2 1.5-2 3v7h-1.4V7.5h1.4V9c.4-.8.9-1.6 2-1.7V9zM355.1 8.9V19h-1.4V8.9h-1.2V7.5h1.2V4.3h1.4v3.3h1.9v1.3h-1.9zM359 5c-.6 0-1.1-.5-1.1-1.1 0-.6.5-1.1 1.1-1.1.6 0 1.1.5 1.1 1.1 0 .6-.5 1.1-1.1 1.1zm-.7 14V7.5h1.5V19h-1.5zM364.2 8.9V19h-1.4V8.9h-1.3V7.5h1.3V2.9c0-1.5.4-2.9 2.1-2.9.4 0 .9.1 1.3.3v1.6c-.3-.3-.6-.5-1.1-.5-.8 0-.9.8-.9 1.4v4.8h2v1.3h-2zM368 5c-.6 0-1.1-.5-1.1-1.1 0-.6.5-1.1 1.1-1.1.6 0 1.1.5 1.1 1.1-.1.6-.6 1.1-1.1 1.1zm-.8 14V7.5h1.5V19h-1.5zM375.8 18.6c-.5.4-1.1.6-1.6.6-2.7 0-3.3-3.7-3.3-5.7 0-2.2.5-6.1 3.4-6.1.5 0 1.1.2 1.6.4v1.7c-.4-.4-.8-.8-1.4-.8-1.8 0-2 3.4-2 4.6 0 1.2.2 4.5 2 4.5.6 0 1.1-.5 1.5-1v1.8zM378.3 5c-.6 0-1.1-.5-1.1-1.1 0-.6.5-1.1 1.1-1.1.6 0 1.1.5 1.1 1.1 0 .6-.5 1.1-1.1 1.1zm-.7 14V7.5h1.5V19h-1.5zM385.9 19v-.9c-.5.7-1.1 1.1-2 1.1-2.6 0-2.7-3.7-2.7-5.7 0-2.3.1-6.1 2.8-6.1.8 0 1.3.3 1.8.9v-.8h1.5V19h-1.4zm-1.4-10.5c-1.7 0-1.7 2.9-1.7 4.1 0 .9 0 1.8.1 2.8.1 1 .3 2.6 1.6 2.6.4 0 .7-.1.9-.4.7-.7.7-3.4.7-4.4 0-2.3-.1-4.7-1.6-4.7zM390 19V.3h1.5V19H390zM400.1 19V1.9h1.6V19h-1.6zM408.8 19v-8.3c0-.9 0-2.1-1.3-2.1-.5 0-1.1.3-1.4.7-.4.6-.4 1.3-.4 2V19h-1.4V7.5h1.4v.9c.6-.6 1.3-1.1 2.2-1.1 1.9 0 2.2 1.6 2.2 3.2V19h-1.3zM414.7 8.9V19h-1.4V8.9H412V7.5h1.2V4.3h1.4v3.3h1.9v1.3h-1.8zM423.7 15.1c-.1 1.8-.6 4.1-2.9 4.1-3 0-3.3-3.7-3.3-5.9 0-2.1.4-6 3.2-6 2.7 0 3.1 3.5 3.1 5.5v.7h-4.9v.3c0 1.2.2 4 1.8 4 1.3 0 1.5-1.7 1.5-2.7h1.5zm-1.3-2.8c-.1-1-.2-3.6-1.6-3.6-1.5 0-1.7 2.6-1.8 3.6h3.4zM425.9 19V.3h1.5V19h-1.5zM430 19V.3h1.5V19H430zM434.7 5c-.6 0-1.1-.5-1.1-1.1 0-.6.5-1.1 1.1-1.1.6 0 1.1.5 1.1 1.1 0 .6-.5 1.1-1.1 1.1zm-.7 14V7.5h1.5V19H434zM443.9 20.2c0 2.1-.8 3.4-3 3.4-2 0-3-1.3-3-3.2V20h1.5c0 1.2.1 2.3 1.6 2.3 1.4 0 1.5-1.1 1.5-2.2v-1.8c-.5.6-1.1.8-1.8.8-2.9 0-2.9-3.9-2.9-6 0-1.9.2-5.7 2.8-5.7.8 0 1.4.3 1.9 1v-.9h1.5v12.7zm-3.1-11.7c-1.5 0-1.7 2.6-1.7 5 0 1.2 0 4.3 1.8 4.3 1.3 0 1.5-1.5 1.5-2.5s.1-1.8.1-2.8c.1-1.1.1-4-1.7-4zM452.2 15.1c-.1 1.8-.6 4.1-2.9 4.1-3 0-3.3-3.7-3.3-5.9 0-2.1.4-6 3.2-6 2.7 0 3.1 3.5 3.1 5.5v.7h-4.9v.3c0 1.2.2 4 1.8 4 1.3 0 1.5-1.7 1.5-2.7h1.5zm-1.3-2.8c-.1-1-.2-3.6-1.6-3.6-1.5 0-1.7 2.6-1.8 3.6h3.4zM458.9 19v-8.3c0-.9 0-2.1-1.3-2.1-.5 0-1.1.3-1.4.7-.4.6-.4 1.3-.4 2V19h-1.4V7.5h1.4v.9c.6-.6 1.3-1.1 2.2-1.1 1.9 0 2.2 1.6 2.2 3.2V19h-1.3zM467.4 18.6c-.5.4-1.1.6-1.6.6-2.7 0-3.3-3.7-3.3-5.7 0-2.2.5-6.1 3.4-6.1.5 0 1.1.2 1.6.4v1.7c-.4-.4-.8-.8-1.4-.8-1.8 0-2 3.4-2 4.6 0 1.2.2 4.5 2 4.5.6 0 1.1-.5 1.5-1v1.8zM475 15.1c-.1 1.8-.6 4.1-2.9 4.1-3 0-3.3-3.7-3.3-5.9 0-2.1.4-6 3.2-6 2.7 0 3.1 3.5 3.1 5.5v.7h-4.9v.3c0 1.2.2 4 1.8 4 1.3 0 1.5-1.7 1.5-2.7h1.5zm-1.3-2.8c-.1-1-.2-3.6-1.6-3.6-1.5 0-1.7 2.6-1.8 3.6h3.4zM282.9 42.3l-4-8.4v8.4h-1.7V25.2h2.2c1 0 2.1 0 3 .5 1.5.8 1.8 2.5 1.8 4.1 0 2.4-.8 4.1-3.4 4.3l4 8.2h-1.9zm-2.9-9.6c2.1 0 2.4-1.2 2.4-3 0-2-.4-3-2.6-3h-.8v6h1zM291.9 38.4c-.1 1.8-.6 4.1-2.9 4.1-3 0-3.3-3.7-3.3-5.9 0-2.1.4-6 3.2-6 2.7 0 3.1 3.5 3.1 5.5v.7h-4.9v.3c0 1.2.2 4 1.8 4 1.3 0 1.5-1.7 1.5-2.7h1.5zm-1.3-2.7c-.1-1-.2-3.6-1.6-3.6-1.5 0-1.7 2.6-1.8 3.6h3.4zM298.5 33.2c-.5-.6-1.2-1.2-2-1.2s-1.4.7-1.4 1.5c0 2.2 3.7 2.6 3.7 5.7 0 1.8-1.3 3.2-3.1 3.2-.8 0-1.5-.3-2.1-.8V40c.6.6 1.2 1.1 2 1.1 1 0 1.7-.8 1.7-1.8 0-2.3-3.7-3-3.7-5.8 0-1.7 1.2-2.9 2.8-2.9.8 0 1.4.3 2.1.7v1.9zM306.3 38.4c-.1 1.8-.6 4.1-2.9 4.1-3 0-3.3-3.7-3.3-5.9 0-2.1.4-6 3.2-6 2.7 0 3.1 3.5 3.1 5.5v.7h-4.9v.3c0 1.2.2 4 1.8 4 1.3 0 1.5-1.7 1.5-2.7h1.5zm-1.3-2.7c-.1-1-.2-3.6-1.6-3.6-1.5 0-1.7 2.6-1.8 3.6h3.4zM312.9 42.3v-.9c-.5.7-1.1 1.1-2 1.1-2.6 0-2.7-3.7-2.7-5.7 0-2.3.1-6.1 2.8-6.1.8 0 1.3.3 1.8 1v-.8h1.5v11.5h-1.4zm-1.4-10.5c-1.7 0-1.7 2.9-1.7 4.1 0 .9 0 1.8.1 2.8.1 1 .3 2.6 1.6 2.6.4 0 .7-.1.9-.4.7-.7.7-3.4.7-4.4 0-2.3-.1-4.7-1.6-4.7zM320.3 32.3c-1.9 0-2 1.5-2 3v7H317V30.9h1.4v1.5c.4-.8.9-1.6 2-1.7v1.6zM326.3 41.9c-.5.4-1.1.6-1.6.6-2.7 0-3.3-3.7-3.3-5.7 0-2.2.5-6.1 3.4-6.1.5 0 1.1.2 1.6.4v1.7c-.4-.4-.8-.8-1.4-.8-1.8 0-2 3.4-2 4.6 0 1.2.2 4.5 2 4.5.6 0 1.1-.5 1.5-1v1.8zM332.5 42.3V34c0-.9 0-2.1-1.3-2.1-.5 0-1.1.3-1.4.7-.4.6-.4 1.3-.4 2v7.7H328V23.6h1.4v8.2c.6-.6 1.3-1.1 2.2-1.1 1.9 0 2.2 1.3 2.2 3v8.7h-1.3zM348.4 42.3l-4-8.4v8.4h-1.7V25.2h2.2c1 0 2.1 0 3 .5 1.5.8 1.8 2.5 1.8 4.1 0 2.4-.8 4.1-3.4 4.3l4 8.2h-1.9zm-2.9-9.6c2.1 0 2.4-1.2 2.4-3 0-2-.4-3-2.6-3h-.8v6h1zM357.4 38.4c-.1 1.8-.6 4.1-2.9 4.1-3 0-3.3-3.7-3.3-5.9 0-2.1.4-6 3.2-6 2.7 0 3.1 3.5 3.1 5.5v.7h-4.9v.3c0 1.2.2 4 1.8 4 1.3 0 1.5-1.7 1.5-2.7h1.5zm-1.3-2.7c-.1-1-.2-3.6-1.6-3.6-1.5 0-1.7 2.6-1.8 3.6h3.4zM364 33.2c-.5-.6-1.2-1.2-2-1.2s-1.4.7-1.4 1.5c0 2.2 3.7 2.6 3.7 5.7 0 1.8-1.3 3.2-3.1 3.2-.8 0-1.5-.3-2.1-.8V40c.6.6 1.2 1.1 2 1.1 1 0 1.7-.8 1.7-1.8 0-2.3-3.7-3-3.7-5.8 0-1.7 1.2-2.9 2.8-2.9.8 0 1.4.3 2.1.7v1.9zM369 42.5c-3 0-3.4-3.7-3.4-5.9s.4-5.9 3.4-5.9 3.2 3.8 3.2 6c0 2.1-.3 5.8-3.2 5.8zm0-10.5c-1.8 0-1.8 3.5-1.8 4.7 0 1.2.1 4.4 1.8 4.4s1.7-3.4 1.7-4.6-.1-4.5-1.7-4.5zM380.3 39.5c0 1.8-1.2 3-3 3s-3-1.1-3-3v-8.7h1.4v7.8c0 1.2.1 2.5 1.6 2.5s1.5-1.5 1.5-2.7v-7.6h1.4v8.7zM386.3 32.3c-1.9 0-2 1.5-2 3v7h-1.4V30.9h1.4v1.5c.4-.8.9-1.6 2-1.7v1.6zM392.2 41.9c-.5.4-1.1.6-1.6.6-2.7 0-3.3-3.7-3.3-5.7 0-2.2.5-6.1 3.4-6.1.5 0 1.1.2 1.6.4v1.7c-.4-.4-.8-.8-1.4-.8-1.8 0-2 3.4-2 4.6 0 1.2.2 4.5 2 4.5.6 0 1.1-.5 1.5-1v1.8zM399.8 38.4c-.1 1.8-.6 4.1-2.9 4.1-3 0-3.3-3.7-3.3-5.9 0-2.1.4-6 3.2-6 2.7 0 3.1 3.5 3.1 5.5v.7H395v.3c0 1.2.2 4 1.8 4 1.3 0 1.5-1.7 1.5-2.7h1.5zm-1.3-2.7c-.1-1-.2-3.6-1.6-3.6-1.5 0-1.7 2.6-1.8 3.6h3.4zM410.2 25.2c3.4 0 4.3 1.5 4.3 4.7 0 3-1.2 4.2-4.2 4.2h-.6v8.2h-1.6V25.2h2.1zm.6 7.5c2 0 2.1-1.4 2.1-3 0-1.8-.4-3-2.4-3h-.8v6h1.1zM417.2 28.3c-.6 0-1.1-.5-1.1-1.1 0-.6.5-1.1 1.1-1.1.6 0 1.1.5 1.1 1.1 0 .6-.5 1.1-1.1 1.1zm-.7 14V30.9h1.5v11.5h-1.5zM420.5 42.3V23.6h1.5v18.7h-1.5zM427.4 42.5c-3 0-3.4-3.7-3.4-5.9s.4-5.9 3.4-5.9 3.2 3.8 3.2 6c0 2.1-.2 5.8-3.2 5.8zm0-10.5c-1.8 0-1.8 3.5-1.8 4.7 0 1.2.1 4.4 1.8 4.4s1.7-3.4 1.7-4.6 0-4.5-1.7-4.5zM434.7 32.2v10.1h-1.4V32.2H432v-1.3h1.2v-3.3h1.4v3.3h1.9v1.3h-1.8z"/>
									</g>
							</svg>